<svg width="279" height="149" viewBox="0 0 279 149" fill="none" xmlns="http://www.w3.org/2000/svg">
<g filter="url(#filter0_d_40_104)">
<path d="M11.6114 114.546C9.1972 113.177 7.34626 111.246 6.05867 108.751C4.77109 106.257 4.04681 103.882 3.88586 101.629C4.12728 99.6978 4.65035 98.2092 5.45513 97.1629C6.17941 96.0361 7.0646 95.151 8.11076 94.507C9.15692 93.783 10.2434 93.2601 11.37 92.9379C12.4966 92.5356 13.583 92.2138 14.6292 91.9722L16.4399 92.5756C16.8422 92.9784 17.2446 93.3402 17.647 93.6624C18.1298 93.9841 18.5725 94.3059 18.9748 94.6281C19.7796 94.3059 20.2624 93.823 20.4233 93.1795C20.6648 92.5356 20.9062 91.8916 21.1476 91.2481C21.389 90.363 21.6707 89.4774 21.9926 88.5922C22.3145 87.7071 22.7169 86.8219 23.1997 85.9368C23.1193 85.2123 23.1595 84.5688 23.3204 84.0054C23.4814 83.442 23.6423 82.9591 23.8033 82.5568C23.3204 82.1545 22.9583 81.9534 22.7169 81.9534C22.5559 81.8728 22.2341 81.7522 21.7512 81.5911C21.5098 81.5911 21.2684 81.5911 21.0269 81.5911C20.7855 81.5106 20.5039 81.43 20.1819 81.3495C18.9748 80.4643 18.1701 79.7403 17.7677 79.1769C17.4458 78.5329 17.0837 77.8894 16.6813 77.2455C16.2789 76.6015 15.9168 76.0381 15.5949 75.5553C15.273 75.0724 14.9108 74.6301 14.5085 74.2278L13.06 73.2621L13.7842 71.8135C13.9452 71.6524 14.0257 71.4513 14.0257 71.2101C14.0257 70.8879 13.8647 70.4455 13.5428 69.8821C13.3014 68.8359 13.2611 68.0713 13.4221 67.5885L13.6635 66.1399C14.4683 65.0937 14.9108 64.4902 14.9914 64.3291L16.1984 63.1222C18.0494 62.6394 19.9405 62.116 21.8719 61.5531C23.8033 60.9091 25.6944 60.2652 27.5454 59.6217C29.3963 58.9777 31.2874 58.3338 33.2188 57.6903C35.1502 57.0463 37.0816 56.4829 39.013 56.0001C39.6568 55.4367 40.3408 55.1149 41.0651 55.0344C41.8698 54.8737 42.5941 54.7527 43.2379 54.6726C43.8012 54.6726 44.3243 54.6321 44.8071 54.5515C45.2899 54.471 45.6521 54.2698 45.8933 53.9481C47.2618 53.4652 48.5893 53.0629 49.8772 52.7412C52.2914 52.0972 55.4698 51.3327 59.4132 50.4475C63.3565 49.5624 67.7827 48.9184 72.6913 48.5161L75.2266 48.3955C75.7094 48.4756 76.1923 48.5161 76.6752 48.5161C77.158 48.4356 77.6408 48.3955 78.1237 48.3955C82.3082 48.3955 85.0848 49.683 86.4528 52.2583C87.2574 52.6606 87.9819 53.1835 88.6254 53.8275C89.2693 54.3909 89.8727 54.9538 90.4361 55.5172C90.8384 55.9195 91.2007 56.2818 91.5224 56.6035C91.8446 56.8452 92.1259 57.0463 92.3676 57.2074L93.3332 58.1731C94.2184 60.1045 94.3795 61.9954 93.8161 63.8463C93.3332 64.812 92.8103 65.3754 92.2469 65.5365C91.6835 65.6976 91.1201 65.8582 90.5567 66.0193L88.9876 66.8644C87.9413 66.7839 87.1367 66.7434 86.5733 66.7434C86.0905 66.7434 85.5271 66.7434 84.8836 66.7434C82.4694 66.7434 79.6524 66.9045 76.4335 67.2262C73.2952 67.4679 70.0759 67.8702 66.7765 68.4336C63.4771 68.9164 60.2582 69.5599 57.1195 70.365C53.9812 71.089 51.2452 71.8941 48.9115 72.7792C48.2675 73.2621 47.4224 73.7044 46.3762 74.1067C46.135 74.1873 45.7727 74.3884 45.2899 74.7106C45.3704 75.3541 45.3704 75.9981 45.2899 76.642C45.2093 77.2054 45.0887 77.7684 44.9278 78.3318C44.8474 78.7341 44.7669 79.1769 44.6864 79.6597C44.6864 80.062 44.6462 80.5048 44.5657 80.9877C42.8757 82.9992 42.071 85.3734 42.1515 88.1094L41.5479 89.3167C41.226 89.6385 40.9443 90.1213 40.7029 90.7653C40.542 91.3287 40.542 91.9321 40.7029 92.5756L41.1858 94.0242C42.7953 93.8635 44.3645 93.7024 45.8933 93.5413C47.503 93.3001 49.1932 93.0585 50.9635 92.8173C53.2166 92.415 55.4698 92.0928 57.7234 91.8516C60.0571 91.5298 62.4713 91.3687 64.9662 91.3687H69.6736L68.5873 92.455L69.9153 92.5756L69.1908 94.507C69.7542 94.7487 70.1564 94.9498 70.3981 95.1109C70.7198 95.191 71.0015 95.3121 71.2432 95.4727L72.0879 96.6801C72.4902 96.9213 72.8524 97.324 73.1741 97.887C73.4963 98.3698 73.6975 99.0538 73.7781 99.9394L73.4158 101.146L67.7422 108.389L67.0181 109.355L65.8108 108.993C64.2821 108.912 62.8336 109.073 61.4652 109.475C60.8217 109.636 60.1377 109.838 59.4132 110.079C58.6891 110.24 57.9646 110.32 57.2405 110.32C55.3091 110.642 53.6995 110.924 52.412 111.166C51.1241 111.326 49.8367 111.487 48.5492 111.648C46.7789 111.97 45.0487 112.292 43.3586 112.614C41.7491 112.855 40.2201 113.258 38.7716 113.821C37.8863 113.902 37.3632 113.942 37.2023 113.942C37.0414 113.862 36.8804 113.821 36.7194 113.821C35.9147 113.821 35.11 113.942 34.3052 114.183C33.5005 114.424 32.7359 114.666 32.0117 114.907C31.5289 115.31 31.2069 115.752 31.046 116.235C30.885 116.638 30.7241 117.08 30.5632 117.563C30.4022 118.127 30.1608 118.69 29.8389 119.253C29.5975 119.736 29.2756 120.259 28.8732 120.823L28.9939 122.995C28.2696 123.156 27.9075 123.277 27.9075 123.357C27.9075 123.357 27.8672 123.357 27.7868 123.357C27.7868 124.001 27.6661 124.605 27.4246 125.168C27.2637 125.731 27.1027 126.255 26.9418 126.737C26.7809 127.059 26.6601 127.341 26.5797 127.582C26.4992 127.824 26.4589 128.065 26.4589 128.307C27.2637 129.755 27.4649 131.405 27.0625 133.256C26.7406 134.785 26.137 136.153 25.2518 137.36C24.3666 138.486 23.3204 139.372 22.1133 140.016C20.8257 140.177 19.86 140.136 19.2163 139.895C18.6529 139.653 18.0494 139.412 17.4056 139.17C17.0032 139.01 16.6008 138.889 16.1984 138.809C15.7961 138.648 15.3937 138.527 14.9914 138.446L13.5428 137.239C13.3014 136.756 13.0197 136.314 12.6978 135.912C12.3759 135.429 12.054 134.946 11.7321 134.463C11.3297 133.9 10.9274 133.336 10.525 132.773C10.1226 132.209 9.76051 131.566 9.43862 130.841C8.87527 128.025 8.75458 125.691 9.07646 123.84C9.47885 121.909 10.0019 120.018 10.6457 118.167C10.8067 117.523 10.9676 116.919 11.1286 116.356C11.2895 115.793 11.4505 115.189 11.6114 114.546Z" fill="url(#paint0_linear_40_104)"/>
</g>
<path d="M111.711 104.85H103.312V73.2819H121.968V80.1264H111.711V86.151H121.169V92.9959H111.711V104.85ZM150.017 92.5639C150.017 94.6083 149.736 96.4218 149.175 98.0053C148.613 99.5889 147.8 100.92 146.735 102C145.67 103.08 144.381 103.9 142.87 104.461C141.358 105.009 139.652 105.282 137.752 105.282C135.982 105.282 134.355 105.009 132.872 104.461C131.404 103.9 130.123 103.08 129.029 102C127.935 100.92 127.085 99.5889 126.481 98.0053C125.891 96.4218 125.596 94.6083 125.596 92.5639C125.596 89.8576 126.085 87.5689 127.064 85.6974C128.057 83.8263 129.468 82.4011 131.296 81.4219C133.138 80.4432 135.334 79.954 137.882 79.954C140.228 79.954 142.315 80.4432 144.144 81.4219C145.972 82.4011 147.404 83.8263 148.441 85.6974C149.491 87.5689 150.017 89.8576 150.017 92.5639ZM134.168 92.5639C134.168 93.9603 134.29 95.1406 134.535 96.1054C134.78 97.0554 135.168 97.7821 135.701 98.2861C136.248 98.7757 136.96 99.0201 137.839 99.0201C138.717 99.0201 139.415 98.7757 139.933 98.2861C140.451 97.7821 140.825 97.0554 141.056 96.1054C141.301 95.1406 141.423 93.9603 141.423 92.5639C141.423 91.1676 141.301 90.0016 141.056 89.0661C140.825 88.1301 140.444 87.4249 139.911 86.9497C139.393 86.4749 138.688 86.2374 137.795 86.2374C136.514 86.2374 135.586 86.7702 135.01 87.8353C134.448 88.9005 134.168 90.4768 134.168 92.5639ZM169.623 79.954C170.084 79.954 170.566 79.99 171.07 80.062C171.573 80.1191 171.948 80.1696 172.193 80.2128L171.437 88.1804C171.163 88.1089 170.811 88.0513 170.379 88.0081C169.947 87.9505 169.342 87.9217 168.565 87.9217C168.032 87.9217 167.464 87.9721 166.859 88.0729C166.254 88.1733 165.679 88.3893 165.132 88.7205C164.599 89.0373 164.16 89.5264 163.814 90.1888C163.469 90.8364 163.297 91.7148 163.297 92.8231V104.85H154.854V80.3856H161.137L162.454 84.2938H162.865C163.311 83.4879 163.879 82.7607 164.57 82.1131C165.276 81.4507 166.06 80.9256 166.924 80.5368C167.802 80.148 168.702 79.954 169.623 79.954ZM184.112 71.2519V84.4666C184.112 85.4598 184.069 86.5686 183.982 87.7921C183.91 89.0013 183.795 90.1024 183.637 91.0956H183.809C184.141 90.592 184.558 89.9584 185.062 89.1957C185.566 88.4325 186.019 87.7993 186.422 87.2953L191.907 80.3856H201.321L192.835 90.7931L201.861 104.85H192.209L186.854 96.0838L184.112 98.1781V104.85H175.626V71.2519H184.112ZM213.219 104.85H204.776V71.2519H213.219V104.85ZM227.557 80.3856V104.85H219.114V80.3856H227.557ZM223.367 70.5396C224.577 70.5396 225.627 70.7911 226.52 71.2951C227.427 71.7991 227.88 72.7995 227.88 74.2966C227.88 75.7506 227.427 76.7365 226.52 77.2549C225.627 77.7585 224.577 78.0105 223.367 78.0105C222.13 78.0105 221.072 77.7585 220.193 77.2549C219.33 76.7365 218.898 75.7506 218.898 74.2966C218.898 72.7995 219.33 71.7991 220.193 71.2951C221.072 70.7911 222.13 70.5396 223.367 70.5396ZM248.393 86.7126H243.19V104.85H234.747V86.7126H231.508V82.5667L234.919 80.4935V80.0832C234.919 77.9673 235.2 76.2469 235.762 74.9226C236.323 73.5838 237.215 72.5979 238.439 71.9647C239.663 71.3311 241.26 71.0143 243.233 71.0143C244.5 71.0143 245.644 71.1151 246.666 71.3167C247.703 71.5183 248.782 71.8063 249.905 72.1802L248.091 77.6432C247.674 77.528 247.206 77.4273 246.687 77.3413C246.184 77.2549 245.637 77.2117 245.047 77.2117C244.399 77.2117 243.923 77.4129 243.622 77.8161C243.334 78.2049 243.19 78.8452 243.19 79.738V80.3856H248.393V86.7126ZM263.703 98.6101C264.466 98.6101 265.164 98.5309 265.797 98.3725C266.431 98.2141 267.093 98.0125 267.784 97.7677V103.922C266.862 104.325 265.883 104.649 264.847 104.893C263.825 105.153 262.515 105.282 260.917 105.282C259.334 105.282 257.937 105.037 256.728 104.548C255.519 104.044 254.576 103.18 253.9 101.957C253.237 100.719 252.906 98.9985 252.906 96.7962V86.7126H249.948V83.2791L253.705 80.6232L255.886 75.4842H261.414V80.3856H267.417V86.7126H261.414V96.2346C261.414 97.0266 261.615 97.6237 262.018 98.0269C262.422 98.4157 262.983 98.6101 263.703 98.6101Z" fill="#1C31A7"/>
<path d="M104.339 128.7V106.87H106.498V128.7H104.339ZM117.441 129.008C116.043 129.008 114.769 128.669 113.617 127.991C112.487 127.313 111.583 126.398 110.904 125.247C110.247 124.096 109.918 122.811 109.918 121.393C109.918 119.995 110.247 118.731 110.904 117.6C111.583 116.47 112.487 115.575 113.617 114.917C114.769 114.239 116.043 113.9 117.441 113.9C118.859 113.9 120.133 114.229 121.264 114.887C122.395 115.545 123.289 116.449 123.946 117.6C124.625 118.731 124.964 119.995 124.964 121.393C124.964 122.832 124.625 124.126 123.946 125.277C123.289 126.408 122.395 127.313 121.264 127.991C120.133 128.669 118.859 129.008 117.441 129.008ZM117.441 126.912C118.468 126.912 119.373 126.676 120.154 126.203C120.956 125.73 121.582 125.072 122.035 124.229C122.508 123.386 122.744 122.441 122.744 121.393C122.744 120.344 122.508 119.419 122.035 118.618C121.582 117.795 120.956 117.148 120.154 116.675C119.373 116.202 118.468 115.966 117.441 115.966C116.434 115.966 115.529 116.202 114.727 116.675C113.926 117.148 113.299 117.795 112.847 118.618C112.394 119.419 112.168 120.344 112.168 121.393C112.168 122.462 112.394 123.418 112.847 124.26C113.299 125.083 113.926 125.73 114.727 126.203C115.529 126.676 116.434 126.912 117.441 126.912ZM134.379 135.113C132.92 135.113 131.614 134.836 130.463 134.281C129.333 133.746 128.418 132.986 127.719 131.999L129.137 130.581C129.713 131.362 130.443 131.968 131.327 132.4C132.211 132.832 133.249 133.048 134.441 133.048C136.085 133.048 137.391 132.606 138.357 131.722C139.344 130.838 139.837 129.635 139.837 128.114V124.507L140.268 121.208L139.837 117.939V114.209H141.995V128.114C141.995 129.512 141.676 130.735 141.039 131.783C140.402 132.832 139.508 133.644 138.357 134.219C137.226 134.815 135.9 135.113 134.379 135.113ZM134.533 128.546C133.197 128.546 131.995 128.227 130.926 127.59C129.857 126.953 129.014 126.079 128.398 124.969C127.781 123.859 127.473 122.605 127.473 121.208C127.473 119.81 127.77 118.566 128.367 117.477C128.983 116.367 129.826 115.493 130.895 114.856C131.964 114.219 133.166 113.9 134.502 113.9C135.633 113.9 136.64 114.116 137.524 114.548C138.429 114.979 139.148 115.596 139.682 116.398C140.238 117.179 140.576 118.104 140.7 119.173V123.274C140.576 124.322 140.238 125.247 139.682 126.048C139.128 126.829 138.408 127.446 137.524 127.899C136.64 128.33 135.643 128.546 134.533 128.546ZM134.934 126.48C135.942 126.48 136.815 126.264 137.555 125.833C138.316 125.401 138.901 124.795 139.312 124.013C139.744 123.212 139.96 122.276 139.96 121.208C139.96 120.159 139.744 119.245 139.312 118.463C138.901 117.682 138.316 117.066 137.555 116.614C136.794 116.161 135.91 115.935 134.903 115.935C133.896 115.935 132.992 116.161 132.19 116.614C131.409 117.066 130.792 117.682 130.34 118.463C129.908 119.245 129.692 120.159 129.692 121.208C129.692 122.235 129.919 123.15 130.371 123.952C130.823 124.754 131.44 125.38 132.221 125.833C133.002 126.264 133.907 126.48 134.934 126.48ZM146.343 128.7V114.209H148.532V128.7H146.343ZM147.422 111.064C147.012 111.064 146.662 110.92 146.374 110.632C146.086 110.323 145.943 109.964 145.943 109.553C145.943 109.121 146.086 108.761 146.374 108.473C146.662 108.186 147.012 108.042 147.422 108.042C147.875 108.042 148.235 108.186 148.502 108.473C148.789 108.761 148.933 109.121 148.933 109.553C148.933 109.964 148.789 110.323 148.502 110.632C148.235 110.92 147.875 111.064 147.422 111.064ZM157.348 129.008C156.566 129.008 155.816 128.906 155.097 128.7C154.377 128.474 153.719 128.165 153.123 127.775C152.548 127.385 152.044 126.922 151.612 126.388L153 124.969C153.576 125.668 154.223 126.192 154.942 126.542C155.683 126.871 156.505 127.035 157.409 127.035C158.375 127.035 159.125 126.85 159.66 126.48C160.215 126.11 160.493 125.596 160.493 124.939C160.493 124.322 160.297 123.839 159.907 123.489C159.516 123.14 159.013 122.862 158.396 122.657C157.8 122.451 157.163 122.256 156.484 122.071C155.806 121.865 155.158 121.619 154.542 121.331C153.925 121.023 153.421 120.601 153.031 120.067C152.661 119.532 152.476 118.833 152.476 117.97C152.476 117.148 152.671 116.439 153.062 115.843C153.473 115.226 154.048 114.753 154.788 114.424C155.549 114.075 156.443 113.9 157.471 113.9C158.56 113.9 159.547 114.095 160.431 114.486C161.315 114.877 162.024 115.452 162.558 116.213L161.171 117.6C160.739 117.045 160.194 116.624 159.537 116.336C158.899 116.028 158.18 115.873 157.378 115.873C156.453 115.873 155.744 116.059 155.251 116.429C154.778 116.778 154.542 117.24 154.542 117.816C154.542 118.371 154.737 118.813 155.127 119.142C155.518 119.45 156.011 119.707 156.607 119.912C157.224 120.097 157.872 120.293 158.55 120.498C159.228 120.683 159.876 120.94 160.493 121.269C161.109 121.577 161.602 122.009 161.972 122.564C162.363 123.099 162.558 123.828 162.558 124.754C162.558 126.048 162.086 127.086 161.14 127.868C160.215 128.628 158.951 129.008 157.348 129.008ZM168.226 128.7V108.104H170.384V128.7H168.226ZM164.557 116.151V114.209H174.023V116.151H164.557ZM176.996 128.7V114.209H179.185V128.7H176.996ZM178.075 111.064C177.664 111.064 177.315 110.92 177.027 110.632C176.739 110.323 176.595 109.964 176.595 109.553C176.595 109.121 176.739 108.761 177.027 108.473C177.315 108.186 177.664 108.042 178.075 108.042C178.527 108.042 178.887 108.186 179.154 108.473C179.442 108.761 179.586 109.121 179.586 109.553C179.586 109.964 179.442 110.323 179.154 110.632C178.887 110.92 178.527 111.064 178.075 111.064ZM190.158 129.008C188.74 129.008 187.455 128.679 186.304 128.022C185.174 127.343 184.269 126.429 183.591 125.277C182.933 124.126 182.604 122.842 182.604 121.424C182.604 120.005 182.933 118.731 183.591 117.6C184.269 116.449 185.174 115.545 186.304 114.887C187.455 114.229 188.74 113.9 190.158 113.9C191.248 113.9 192.265 114.106 193.211 114.517C194.156 114.928 194.958 115.503 195.616 116.244L194.197 117.693C193.704 117.138 193.108 116.716 192.409 116.429C191.71 116.12 190.96 115.966 190.158 115.966C189.131 115.966 188.216 116.202 187.414 116.675C186.612 117.148 185.986 117.795 185.533 118.618C185.081 119.419 184.855 120.354 184.855 121.424C184.855 122.472 185.081 123.418 185.533 124.26C185.986 125.083 186.612 125.73 187.414 126.203C188.216 126.676 189.131 126.912 190.158 126.912C190.981 126.912 191.741 126.768 192.44 126.48C193.139 126.172 193.735 125.74 194.228 125.185L195.677 126.634C194.999 127.395 194.177 127.981 193.211 128.392C192.265 128.803 191.248 129.008 190.158 129.008Z" fill="#1C31A7"/>
<defs>
<filter id="filter0_d_40_104" x="0.0230913" y="48.3955" width="97.9845" height="99.4423" filterUnits="userSpaceOnUse" color-interpolation-filters="sRGB">
<feFlood flood-opacity="0" result="BackgroundImageFix"/>
<feColorMatrix in="SourceAlpha" type="matrix" values="0 0 0 0 0 0 0 0 0 0 0 0 0 0 0 0 0 0 127 0" result="hardAlpha"/>
<feOffset dy="3.86277"/>
<feGaussianBlur stdDeviation="1.93139"/>
<feComposite in2="hardAlpha" operator="out"/>
<feColorMatrix type="matrix" values="0 0 0 0 0 0 0 0 0 0 0 0 0 0 0 0 0 0 0.25 0"/>
<feBlend mode="normal" in2="BackgroundImageFix" result="effect1_dropShadow_40_104"/>
<feBlend mode="normal" in="SourceGraphic" in2="effect1_dropShadow_40_104" result="shape"/>
</filter>
<linearGradient id="paint0_linear_40_104" x1="60.3789" y1="-0.000194804" x2="60.3789" y2="132.3" gradientUnits="userSpaceOnUse">
<stop offset="0.585" stop-color="#1D31A7"/>
<stop offset="1" stop-color="#0B1341"/>
</linearGradient>
</defs>
</svg>
