<svg width="265" height="93" viewBox="0 0 265 93" fill="none" xmlns="http://www.w3.org/2000/svg">
<path d="M8.6114 66.5455C6.1972 65.1771 4.34626 63.2461 3.05867 60.7513C1.77109 58.2565 1.04681 55.8823 0.885864 53.6292C1.12728 51.6978 1.65035 50.2092 2.45513 49.1629C3.17941 48.0361 4.0646 47.151 5.11076 46.507C6.15692 45.783 7.24336 45.2601 8.36998 44.9379C9.49664 44.5356 10.583 44.2138 11.6292 43.9722L13.4399 44.5756C13.8422 44.9784 14.2446 45.3402 14.647 45.6624C15.1298 45.9841 15.5725 46.3059 15.9748 46.6281C16.7796 46.3059 17.2624 45.823 17.4233 45.1795C17.6648 44.5356 17.9062 43.8916 18.1476 43.2481C18.389 42.363 18.6707 41.4774 18.9926 40.5922C19.3145 39.7071 19.7169 38.8219 20.1997 37.9368C20.1193 37.2123 20.1595 36.5688 20.3204 36.0054C20.4814 35.442 20.6423 34.9591 20.8033 34.5568C20.3204 34.1545 19.9583 33.9534 19.7169 33.9534C19.5559 33.8728 19.2341 33.7522 18.7512 33.5911C18.5098 33.5911 18.2684 33.5911 18.0269 33.5911C17.7855 33.5106 17.5039 33.43 17.1819 33.3495C15.9748 32.4643 15.1701 31.7403 14.7677 31.1769C14.4458 30.5329 14.0837 29.8894 13.6813 29.2455C13.2789 28.6015 12.9168 28.0381 12.5949 27.5553C12.273 27.0724 11.9108 26.6301 11.5085 26.2278L10.06 25.2621L10.7842 23.8135C10.9452 23.6524 11.0257 23.4513 11.0257 23.2101C11.0257 22.8879 10.8647 22.4455 10.5428 21.8821C10.3014 20.8359 10.2611 20.0713 10.4221 19.5885L10.6635 18.1399C11.4683 17.0937 11.9108 16.4902 11.9914 16.3291L13.1984 15.1222C15.0494 14.6394 16.9405 14.116 18.8719 13.5531C20.8033 12.9091 22.6944 12.2652 24.5454 11.6217C26.3963 10.9777 28.2874 10.3338 30.2188 9.69026C32.1502 9.04631 34.0816 8.48291 36.013 8.00006C36.6568 7.43666 37.3408 7.11491 38.0651 7.03436C38.8698 6.87371 39.5941 6.75266 40.2379 6.67256C40.8012 6.67256 41.3243 6.63206 41.8071 6.55151C42.2899 6.47096 42.6521 6.26981 42.8933 5.94806C44.2618 5.46521 45.5893 5.06291 46.8772 4.74116C49.2914 4.09721 52.4698 3.33266 56.4132 2.44751C60.3565 1.56236 64.7827 0.91841 69.6913 0.51611L72.2266 0.395508C72.7094 0.475608 73.1923 0.51611 73.6752 0.51611C74.158 0.43556 74.6408 0.395508 75.1237 0.395508C79.3082 0.395508 82.0848 1.68296 83.4528 4.25831C84.2574 4.66061 84.9819 5.18351 85.6254 5.82746C86.2693 6.39086 86.8727 6.95381 87.4361 7.51721C87.8384 7.91951 88.2007 8.28176 88.5224 8.60351C88.8446 8.84516 89.1259 9.04631 89.3676 9.20741L90.3332 10.1731C91.2184 12.1045 91.3795 13.9954 90.8161 15.8463C90.3332 16.812 89.8103 17.3754 89.2469 17.5365C88.6835 17.6976 88.1201 17.8582 87.5567 18.0193L85.9876 18.8644C84.9413 18.7839 84.1367 18.7434 83.5733 18.7434C83.0905 18.7434 82.5271 18.7434 81.8836 18.7434C79.4694 18.7434 76.6524 18.9045 73.4335 19.2262C70.2952 19.4679 67.0759 19.8702 63.7765 20.4336C60.4771 20.9164 57.2582 21.5599 54.1195 22.365C50.9812 23.089 48.2452 23.8941 45.9115 24.7792C45.2675 25.2621 44.4224 25.7044 43.3762 26.1067C43.135 26.1873 42.7727 26.3884 42.2899 26.7106C42.3704 27.3541 42.3704 27.9981 42.2899 28.642C42.2093 29.2054 42.0887 29.7684 41.9278 30.3318C41.8474 30.7341 41.7669 31.1769 41.6864 31.6597C41.6864 32.062 41.6462 32.5048 41.5657 32.9877C39.8757 34.9992 39.071 37.3734 39.1515 40.1094L38.5479 41.3167C38.226 41.6385 37.9443 42.1213 37.7029 42.7653C37.542 43.3287 37.542 43.9321 37.7029 44.5756L38.1858 46.0242C39.7953 45.8635 41.3645 45.7024 42.8933 45.5413C44.503 45.3001 46.1932 45.0585 47.9635 44.8173C50.2166 44.415 52.4698 44.0928 54.7234 43.8516C57.0571 43.5298 59.4713 43.3687 61.9662 43.3687H66.6736L65.5873 44.455L66.9153 44.5756L66.1908 46.507C66.7542 46.7487 67.1564 46.9498 67.3981 47.1109C67.7198 47.191 68.0015 47.3121 68.2432 47.4727L69.0879 48.6801C69.4902 48.9213 69.8524 49.324 70.1741 49.887C70.4963 50.3698 70.6975 51.0538 70.7781 51.9394L70.4158 53.1463L64.7422 60.3891L64.0181 61.3548L62.8108 60.9925C61.2821 60.912 59.8336 61.0731 58.4652 61.4754C57.8217 61.6365 57.1377 61.8376 56.4132 62.0788C55.6891 62.2399 54.9646 62.3205 54.2405 62.3205C52.3091 62.6422 50.6995 62.9239 49.412 63.1656C48.1241 63.3262 46.8367 63.4873 45.5492 63.6484C43.7789 63.9702 42.0487 64.2919 40.3586 64.6141C38.7491 64.8553 37.2201 65.2576 35.7716 65.821C34.8863 65.9016 34.3632 65.9416 34.2023 65.9416C34.0414 65.8615 33.8804 65.821 33.7194 65.821C32.9147 65.821 32.11 65.9416 31.3052 66.1833C30.5005 66.4245 29.7359 66.6661 29.0117 66.9073C28.5289 67.3101 28.2069 67.7524 28.046 68.2353C27.885 68.6376 27.7241 69.0804 27.5632 69.5632C27.4022 70.1266 27.1608 70.6896 26.8389 71.253C26.5975 71.7358 26.2756 72.2592 25.8732 72.8226L25.9939 74.9952C25.2696 75.1563 24.9075 75.2769 24.9075 75.3574C24.9075 75.3574 24.8672 75.3574 24.7868 75.3574C24.7868 76.0009 24.6661 76.6048 24.4246 77.1678C24.2637 77.7312 24.1027 78.2545 23.9418 78.7374C23.7809 79.0591 23.6601 79.3408 23.5797 79.582C23.4992 79.8237 23.4589 80.0649 23.4589 80.3065C24.2637 81.7551 24.4649 83.4048 24.0625 85.2556C23.7406 86.7847 23.137 88.1527 22.2518 89.3601C21.3666 90.4864 20.3204 91.3716 19.1133 92.0155C17.8257 92.1766 16.86 92.1361 16.2163 91.8949C15.6529 91.6533 15.0494 91.4121 14.4056 91.1704C14.0032 91.0098 13.6008 90.8887 13.1984 90.8086C12.7961 90.6475 12.3937 90.5269 11.9914 90.4464L10.5428 89.239C10.3014 88.7562 10.0197 88.3138 9.69784 87.9115C9.37591 87.4287 9.05402 86.9458 8.73214 86.463C8.32975 85.8996 7.92736 85.3362 7.52501 84.7728C7.12262 84.2094 6.76051 83.5659 6.43862 82.8414C5.87527 80.0248 5.75458 77.6911 6.07646 75.8403C6.47885 73.9089 7.00193 72.0175 7.6457 70.1667C7.80667 69.5227 7.96763 68.9193 8.12855 68.3559C8.28952 67.7929 8.45048 67.189 8.6114 66.5455Z" fill="url(#paint0_linear_72_89)"/>
<path d="M108.711 56.8503H100.312V25.2819H118.968V32.1264H108.711V38.151H118.169V44.9959H108.711V56.8503ZM147.017 44.5639C147.017 46.6083 146.736 48.4218 146.175 50.0053C145.613 51.5889 144.8 52.9204 143.735 54C142.67 55.0795 141.381 55.9003 139.87 56.4615C138.358 57.0087 136.652 57.2823 134.752 57.2823C132.982 57.2823 131.355 57.0087 129.872 56.4615C128.404 55.9003 127.123 55.0795 126.029 54C124.935 52.9204 124.085 51.5889 123.481 50.0053C122.891 48.4218 122.596 46.6083 122.596 44.5639C122.596 41.8576 123.085 39.5689 124.064 37.6974C125.057 35.8263 126.468 34.4011 128.296 33.4219C130.138 32.4432 132.334 31.954 134.882 31.954C137.228 31.954 139.315 32.4432 141.144 33.4219C142.972 34.4011 144.404 35.8263 145.441 37.6974C146.491 39.5689 147.017 41.8576 147.017 44.5639ZM131.168 44.5639C131.168 45.9603 131.29 47.1406 131.535 48.1054C131.78 49.0554 132.168 49.7821 132.701 50.2861C133.248 50.7757 133.96 51.0201 134.839 51.0201C135.717 51.0201 136.415 50.7757 136.933 50.2861C137.451 49.7821 137.825 49.0554 138.056 48.1054C138.301 47.1406 138.423 45.9603 138.423 44.5639C138.423 43.1676 138.301 42.0016 138.056 41.0661C137.825 40.1301 137.444 39.4249 136.911 38.9497C136.393 38.4749 135.688 38.2374 134.795 38.2374C133.514 38.2374 132.586 38.7702 132.01 39.8353C131.448 40.9005 131.168 42.4768 131.168 44.5639ZM166.623 31.954C167.084 31.954 167.566 31.99 168.07 32.062C168.573 32.1191 168.948 32.1696 169.193 32.2128L168.437 40.1804C168.163 40.1089 167.811 40.0513 167.379 40.0081C166.947 39.9505 166.342 39.9217 165.565 39.9217C165.032 39.9217 164.464 39.9721 163.859 40.0729C163.254 40.1733 162.679 40.3893 162.132 40.7205C161.599 41.0373 161.16 41.5264 160.814 42.1888C160.469 42.8364 160.297 43.7148 160.297 44.8231V56.8503H151.854V32.3856H158.137L159.454 36.2938H159.865C160.311 35.4879 160.879 34.7607 161.57 34.1131C162.276 33.4507 163.06 32.9256 163.924 32.5368C164.802 32.148 165.702 31.954 166.623 31.954ZM181.112 23.2519V36.4666C181.112 37.4598 181.069 38.5686 180.982 39.7921C180.91 41.0013 180.795 42.1024 180.637 43.0956H180.809C181.141 42.592 181.558 41.9584 182.062 41.1957C182.566 40.4325 183.019 39.7993 183.422 39.2953L188.907 32.3856H198.321L189.835 42.7931L198.861 56.8503H189.209L183.854 48.0838L181.112 50.1781V56.8503H172.626V23.2519H181.112ZM210.219 56.8503H201.776V23.2519H210.219V56.8503ZM224.557 32.3856V56.8503H216.114V32.3856H224.557ZM220.367 22.5396C221.577 22.5396 222.627 22.7911 223.52 23.2951C224.427 23.7991 224.88 24.7995 224.88 26.2966C224.88 27.7506 224.427 28.7365 223.52 29.2549C222.627 29.7585 221.577 30.0105 220.367 30.0105C219.13 30.0105 218.072 29.7585 217.193 29.2549C216.33 28.7365 215.898 27.7506 215.898 26.2966C215.898 24.7995 216.33 23.7991 217.193 23.2951C218.072 22.7911 219.13 22.5396 220.367 22.5396ZM245.393 38.7126H240.19V56.8503H231.747V38.7126H228.508V34.5667L231.919 32.4935V32.0832C231.919 29.9673 232.2 28.2469 232.762 26.9226C233.323 25.5838 234.215 24.5979 235.439 23.9647C236.663 23.3311 238.26 23.0143 240.233 23.0143C241.5 23.0143 242.644 23.1151 243.666 23.3167C244.703 23.5183 245.782 23.8063 246.905 24.1802L245.091 29.6432C244.674 29.528 244.206 29.4273 243.687 29.3413C243.184 29.2549 242.637 29.2117 242.047 29.2117C241.399 29.2117 240.923 29.4129 240.622 29.8161C240.334 30.2049 240.19 30.8452 240.19 31.738V32.3856H245.393V38.7126ZM260.703 50.6101C261.466 50.6101 262.164 50.5309 262.797 50.3725C263.431 50.2141 264.093 50.0125 264.784 49.7677V55.9219C263.862 56.3247 262.883 56.6486 261.847 56.8935C260.825 57.1527 259.515 57.2823 257.917 57.2823C256.334 57.2823 254.937 57.0375 253.728 56.5479C252.519 56.0443 251.576 55.1803 250.9 53.9568C250.237 52.7188 249.906 50.9985 249.906 48.7962V38.7126H246.948V35.2791L250.705 32.6232L252.886 27.4842H258.414V32.3856H264.417V38.7126H258.414V48.2346C258.414 49.0266 258.615 49.6237 259.018 50.0269C259.422 50.4157 259.983 50.6101 260.703 50.6101Z" fill="white"/>
<path d="M101.339 80.7001V58.8701H103.498V80.7001H101.339ZM114.441 81.0083C113.043 81.0083 111.769 80.669 110.617 79.9909C109.487 79.3127 108.583 78.3979 107.904 77.2468C107.247 76.0957 106.918 74.8109 106.918 73.3925C106.918 71.9948 107.247 70.7308 107.904 69.5999C108.583 68.4695 109.487 67.5754 110.617 66.9175C111.769 66.2393 113.043 65.9 114.441 65.9C115.859 65.9 117.133 66.229 118.264 66.8869C119.395 67.5448 120.289 68.4488 120.946 69.5999C121.625 70.7308 121.964 71.9948 121.964 73.3925C121.964 74.8316 121.625 76.1263 120.946 77.2774C120.289 78.4082 119.395 79.3127 118.264 79.9909C117.133 80.669 115.859 81.0083 114.441 81.0083ZM114.441 78.9118C115.468 78.9118 116.373 78.6755 117.154 78.2026C117.956 77.7296 118.582 77.0722 119.035 76.2293C119.508 75.3865 119.744 74.441 119.744 73.3925C119.744 72.3445 119.508 71.4193 119.035 70.6178C118.582 69.7952 117.956 69.1481 117.154 68.6752C116.373 68.2022 115.468 67.966 114.441 67.966C113.434 67.966 112.529 68.2022 111.727 68.6752C110.926 69.1481 110.299 69.7952 109.847 70.6178C109.394 71.4193 109.168 72.3445 109.168 73.3925C109.168 74.4617 109.394 75.4175 109.847 76.2599C110.299 77.0825 110.926 77.7296 111.727 78.2026C112.529 78.6755 113.434 78.9118 114.441 78.9118ZM131.379 87.1135C129.92 87.1135 128.614 86.8358 127.463 86.281C126.333 85.7464 125.418 84.9859 124.719 83.999L126.137 82.5811C126.713 83.3618 127.443 83.9684 128.327 84.4C129.211 84.8315 130.249 85.0475 131.441 85.0475C133.085 85.0475 134.391 84.6056 135.357 83.7218C136.344 82.838 136.837 81.6352 136.837 80.1142V76.507L137.268 73.2076L136.837 69.9392V66.2087H138.995V80.1142C138.995 81.5119 138.676 82.735 138.039 83.7835C137.402 84.8315 136.508 85.6438 135.357 86.2193C134.226 86.8151 132.9 87.1135 131.379 87.1135ZM131.533 80.5457C130.197 80.5457 128.995 80.2271 127.926 79.5899C126.857 78.9527 126.014 78.0793 125.398 76.9691C124.781 75.8594 124.473 74.6053 124.473 73.2076C124.473 71.8099 124.77 70.5661 125.367 69.4766C125.983 68.3669 126.826 67.493 127.895 66.8558C128.964 66.2186 130.166 65.9 131.502 65.9C132.633 65.9 133.64 66.116 134.524 66.5476C135.429 66.9791 136.148 67.5961 136.682 68.3975C137.238 69.1787 137.576 70.1039 137.7 71.1727V75.2735C137.576 76.3216 137.238 77.2468 136.682 78.0482C136.128 78.8294 135.408 79.4464 134.524 79.8986C133.64 80.3302 132.643 80.5457 131.533 80.5457ZM131.934 78.4802C132.942 78.4802 133.815 78.2642 134.555 77.8327C135.316 77.4011 135.901 76.7945 136.312 76.0133C136.744 75.2119 136.96 74.2763 136.96 73.2076C136.96 72.1591 136.744 71.2447 136.312 70.4635C135.901 69.6823 135.316 69.0658 134.555 68.6135C133.794 68.1613 132.91 67.9354 131.903 67.9354C130.896 67.9354 129.992 68.1613 129.19 68.6135C128.409 69.0658 127.792 69.6823 127.34 70.4635C126.908 71.2447 126.692 72.1591 126.692 73.2076C126.692 74.2354 126.919 75.1502 127.371 75.9517C127.823 76.7536 128.44 77.3804 129.221 77.8327C130.002 78.2642 130.907 78.4802 131.934 78.4802ZM143.343 80.7001V66.2087H145.532V80.7001H143.343ZM144.422 63.0637C144.012 63.0637 143.662 62.9197 143.374 62.6317C143.086 62.3234 142.943 61.9639 142.943 61.5526C142.943 61.121 143.086 60.7615 143.374 60.4735C143.662 60.1859 144.012 60.0419 144.422 60.0419C144.875 60.0419 145.235 60.1859 145.502 60.4735C145.789 60.7615 145.933 61.121 145.933 61.5526C145.933 61.9639 145.789 62.3234 145.502 62.6317C145.235 62.9197 144.875 63.0637 144.422 63.0637ZM154.348 81.0083C153.566 81.0083 152.816 80.9057 152.097 80.7001C151.377 80.4742 150.719 80.1655 150.123 79.7749C149.548 79.3847 149.044 78.9221 148.612 78.3875L150 76.9691C150.576 77.668 151.223 78.1922 151.942 78.5419C152.683 78.8708 153.505 79.0351 154.409 79.0351C155.375 79.0351 156.125 78.8501 156.66 78.4802C157.215 78.1099 157.493 77.5964 157.493 76.9385C157.493 76.3216 157.297 75.8387 156.907 75.4891C156.516 75.1399 156.013 74.8622 155.396 74.6566C154.8 74.4514 154.163 74.2561 153.484 74.0711C152.806 73.8655 152.158 73.6189 151.542 73.3309C150.925 73.0226 150.421 72.6014 150.031 72.0668C149.661 71.5322 149.476 70.8334 149.476 69.9703C149.476 69.1481 149.671 68.4389 150.062 67.8427C150.473 67.2262 151.048 66.7532 151.788 66.4243C152.549 66.0751 153.443 65.9 154.471 65.9C155.56 65.9 156.547 66.0953 157.431 66.4859C158.315 66.8765 159.024 67.4521 159.558 68.2126L158.171 69.5999C157.739 69.0451 157.194 68.6239 156.537 68.3359C155.899 68.0276 155.18 67.8733 154.378 67.8733C153.453 67.8733 152.744 68.0587 152.251 68.4286C151.778 68.7778 151.542 69.2404 151.542 69.8159C151.542 70.3708 151.737 70.8131 152.127 71.1416C152.518 71.4503 153.011 71.7073 153.607 71.9125C154.224 72.0974 154.872 72.2927 155.55 72.4984C156.228 72.6833 156.876 72.9403 157.493 73.2692C158.109 73.5775 158.602 74.0095 158.972 74.5643C159.363 75.0989 159.558 75.8284 159.558 76.7536C159.558 78.0482 159.086 79.0864 158.14 79.8676C157.215 80.6281 155.951 81.0083 154.348 81.0083ZM165.226 80.7001V60.1036H167.384V80.7001H165.226ZM161.557 68.1509V66.2087H171.023V68.1509H161.557ZM173.996 80.7001V66.2087H176.185V80.7001H173.996ZM175.075 63.0637C174.664 63.0637 174.315 62.9197 174.027 62.6317C173.739 62.3234 173.595 61.9639 173.595 61.5526C173.595 61.121 173.739 60.7615 174.027 60.4735C174.315 60.1859 174.664 60.0419 175.075 60.0419C175.527 60.0419 175.887 60.1859 176.154 60.4735C176.442 60.7615 176.586 61.121 176.586 61.5526C176.586 61.9639 176.442 62.3234 176.154 62.6317C175.887 62.9197 175.527 63.0637 175.075 63.0637ZM187.158 81.0083C185.74 81.0083 184.455 80.6794 183.304 80.0219C182.174 79.3433 181.269 78.4289 180.591 77.2774C179.933 76.1263 179.604 74.842 179.604 73.4236C179.604 72.0052 179.933 70.7308 180.591 69.5999C181.269 68.4488 182.174 67.5448 183.304 66.8869C184.455 66.229 185.74 65.9 187.158 65.9C188.248 65.9 189.265 66.1057 190.211 66.517C191.156 66.9278 191.958 67.5034 192.616 68.2436L191.197 69.6926C190.704 69.1378 190.108 68.7161 189.409 68.4286C188.71 68.1203 187.96 67.966 187.158 67.966C186.131 67.966 185.216 68.2022 184.414 68.6752C183.612 69.1481 182.986 69.7952 182.533 70.6178C182.081 71.4193 181.855 72.3544 181.855 73.4236C181.855 74.4716 182.081 75.4175 182.533 76.2599C182.986 77.0825 183.612 77.7296 184.414 78.2026C185.216 78.6755 186.131 78.9118 187.158 78.9118C187.981 78.9118 188.741 78.7678 189.44 78.4802C190.139 78.172 190.735 77.74 191.228 77.1851L192.677 78.6341C191.999 79.3946 191.177 79.9805 190.211 80.3918C189.265 80.8027 188.248 81.0083 187.158 81.0083Z" fill="white"/>
<defs>
<linearGradient id="paint0_linear_72_89" x1="46.0153" y1="0.395508" x2="46.0153" y2="92.1121" gradientUnits="userSpaceOnUse">
<stop offset="0.528846" stop-color="white"/>
<stop offset="1" stop-color="#263C8E"/>
</linearGradient>
</defs>
</svg>
